<svg width="48" height="48" viewBox="0 0 48 48" fill="none" xmlns="http://www.w3.org/2000/svg">
<rect width="48" height="48" fill="#E5E5E5"/>
<g id="Profile Page 25" clip-path="url(#clip0_1164_0)">
<rect width="1280" height="3084" transform="translate(-229 -2263)" fill="#232A42"/>
<g id="Frame 189">
<rect width="1280" height="458" transform="translate(-229 -232)" fill="#3185F2"/>
<g id="Frame 79" clip-path="url(#clip1_1164_0)">
<g id="Frame 196" clip-path="url(#clip2_1164_0)">
<g id="Frame 43" filter="url(#filter0_d_1164_0)">
<g id="Icons / Facebook">
<path id="&#240;&#159;&#148;&#185; Icon Color" fill-rule="evenodd" clip-rule="evenodd" d="M45.35 0H2.65C1.186 0 0 1.186 0 2.65V45.352C0 46.814 1.186 48 2.65 48H25.64V29.412H19.384V22.168H25.64V16.826C25.64 10.626 29.426 7.25 34.958 7.25C37.608 7.25 39.884 7.448 40.548 7.536V14.016L36.712 14.018C33.704 14.018 33.122 15.448 33.122 17.544V22.17H40.296L39.362 29.414H33.122V48H45.354C46.814 48 48 46.814 48 45.35V2.65C48 1.186 46.814 0 45.35 0Z" fill="white"/>
<mask id="mask0_1164_0" style="mask-type:luminance" maskUnits="userSpaceOnUse" x="0" y="0" width="48" height="48">
<path id="&#240;&#159;&#148;&#185; Icon Color_2" fill-rule="evenodd" clip-rule="evenodd" d="M45.35 0H2.65C1.186 0 0 1.186 0 2.65V45.352C0 46.814 1.186 48 2.65 48H25.64V29.412H19.384V22.168H25.64V16.826C25.64 10.626 29.426 7.25 34.958 7.25C37.608 7.25 39.884 7.448 40.548 7.536V14.016L36.712 14.018C33.704 14.018 33.122 15.448 33.122 17.544V22.17H40.296L39.362 29.414H33.122V48H45.354C46.814 48 48 46.814 48 45.35V2.65C48 1.186 46.814 0 45.35 0Z" fill="white"/>
</mask>
<g mask="url(#mask0_1164_0)">
</g>
</g>
<rect x="-80.5" y="-63.5" width="209" height="225" stroke="#F2F2F2"/>
</g>
</g>
</g>
</g>
</g>
<defs>
<filter id="filter0_d_1164_0" x="-121" y="-94" width="290" height="306" filterUnits="userSpaceOnUse" color-interpolation-filters="sRGB">
<feFlood flood-opacity="0" result="BackgroundImageFix"/>
<feColorMatrix in="SourceAlpha" type="matrix" values="0 0 0 0 0 0 0 0 0 0 0 0 0 0 0 0 0 0 127 0" result="hardAlpha"/>
<feOffset dy="10"/>
<feGaussianBlur stdDeviation="20"/>
<feColorMatrix type="matrix" values="0 0 0 0 0.541176 0 0 0 0 0.584314 0 0 0 0 0.619608 0 0 0 0.05 0"/>
<feBlend mode="normal" in2="BackgroundImageFix" result="effect1_dropShadow_1164_0"/>
<feBlend mode="normal" in="SourceGraphic" in2="effect1_dropShadow_1164_0" result="shape"/>
</filter>
<clipPath id="clip0_1164_0">
<rect width="1280" height="3084" fill="white" transform="translate(-229 -2263)"/>
</clipPath>
<clipPath id="clip1_1164_0">
<rect width="984" height="330" fill="white" transform="translate(-81 -168)"/>
</clipPath>
<clipPath id="clip2_1164_0">
<rect width="984" height="226" fill="white" transform="translate(-81 -64)"/>
</clipPath>
</defs>
</svg>
